<svg xmlns="http://www.w3.org/2000/svg" width="400" height="400" viewBox="0 0 400 400" role="img" aria-label="Document Visualizer icon">
  <rect width="400" height="400" rx="80" fill="#111827"/>
  <rect x="86" y="72" width="164" height="212" rx="18" fill="#F8FAFC"/>
  <path d="M250 72v62h62" fill="#CBD5E1"/>
  <path d="M250 72l62 62v150c0 10-8 18-18 18H86V90c0-10 8-18 18-18h146z" fill="none" stroke="#F8FAFC" stroke-width="0"/>
  <rect x="114" y="130" width="102" height="12" rx="6" fill="#334155"/>
  <rect x="114" y="160" width="146" height="10" rx="5" fill="#94A3B8"/>
  <rect x="114" y="184" width="122" height="10" rx="5" fill="#94A3B8"/>
  <circle cx="264" cy="250" r="52" fill="#38BDF8"/>
  <path d="M236 250h56M264 222v56" stroke="#082F49" stroke-width="16" stroke-linecap="round"/>
  <path d="M244 314l-30 48h100l-30-48" fill="#22C55E"/>
</svg>
